<svg width="16" height="16" viewBox="0 0 16 16" fill="none" xmlns="http://www.w3.org/2000/svg">
<path d="M8 0C12.4062 0 16 3.59375 16 8C16 12.4375 12.4062 16 8 16C3.5625 16 0 12.4375 0 8C0 3.59375 3.5625 0 8 0ZM9.6875 10.8125L6.90625 8L9.6875 5.21875C10.0938 4.84375 10.0938 4.1875 9.6875 3.8125C9.3125 3.40625 8.65625 3.40625 8.28125 3.8125L4.78125 7.3125C4.59375 7.5 4.5 7.75 4.5 8C4.5 8.28125 4.59375 8.53125 4.78125 8.71875L8.28125 12.2188C8.65625 12.625 9.3125 12.625 9.6875 12.2188C10.0938 11.8438 10.0938 11.1875 9.6875 10.8125Z" fill="white"/>
</svg>
