<svg width="16" height="16" viewBox="0 0 16 16" fill="none" xmlns="http://www.w3.org/2000/svg">
<path d="M8 0C12.4062 0 16 3.59375 16 8C16 12.4375 12.4062 16 8 16C3.5625 16 0 12.4375 0 8C0 3.59375 3.5625 0 8 0ZM11.1875 8.71875C11.375 8.53125 11.5 8.28125 11.5 8C11.5 7.75 11.375 7.5 11.1875 7.3125L7.6875 3.8125C7.3125 3.40625 6.65625 3.40625 6.28125 3.8125C5.875 4.1875 5.875 4.84375 6.28125 5.21875L9.0625 8L6.28125 10.8125C5.875 11.1875 5.875 11.8438 6.28125 12.2188C6.65625 12.625 7.3125 12.625 7.6875 12.2188L11.1875 8.71875Z" fill="white"/>
</svg>
