<svg width="16" height="16" viewBox="0 0 16 16" fill="none" xmlns="http://www.w3.org/2000/svg">
<path d="M8 0C12.4062 0 16 3.59375 16 8C16 12.4375 12.4062 16 8 16C3.5625 16 0 12.4375 0 8C0 3.59375 3.5625 0 8 0ZM12.1875 9.71875C12.5938 9.34375 12.5938 8.6875 12.1875 8.3125L8.6875 4.8125C8.5 4.625 8.25 4.5 8 4.5C7.71875 4.5 7.46875 4.625 7.28125 4.8125L3.78125 8.3125C3.375 8.6875 3.375 9.34375 3.78125 9.71875C4.15625 10.125 4.8125 10.125 5.1875 9.71875L8 6.9375L10.7812 9.71875C11.1562 10.125 11.8125 10.125 12.1875 9.71875Z" fill="white"/>
</svg>
