<svg width="27" height="27" viewBox="0 0 27 27" fill="none" xmlns="http://www.w3.org/2000/svg">
<rect width="27" height="27" rx="13.5" fill="white"/>
<path d="M21.625 19.875C22.0938 20.375 22.0938 21.1562 21.625 21.6562C21.125 22.125 20.3438 22.125 19.8438 21.6562L16.125 17.9062C14.8438 18.75 13.2812 19.1875 11.5938 18.9688C8.71875 18.5625 6.40625 16.2188 6.03125 13.375C5.5 9.125 9.09375 5.53125 13.3438 6.0625C16.1875 6.4375 18.5312 8.75 18.9375 11.625C19.1562 13.3125 18.7188 14.875 17.875 16.125L21.625 19.875ZM8.46875 12.5C8.46875 14.7188 10.25 16.5 12.4688 16.5C14.6562 16.5 16.4688 14.7188 16.4688 12.5C16.4688 10.3125 14.6562 8.5 12.4688 8.5C10.25 8.5 8.46875 10.3125 8.46875 12.5Z" fill="black"/>
</svg>
